<svg width="30" height="30" viewBox="0 0 30 30" fill="none" xmlns="http://www.w3.org/2000/svg">
<path fill-rule="evenodd" clip-rule="evenodd" d="M15 11C17.2091 11 19 12.7909 19 15C19 17.2091 17.2091 19 15 19C12.7909 19 11 17.2091 11 15C11 12.7909 12.7909 11 15 11ZM15 14C14.4477 14 14 14.4477 14 15C14 15.5523 14.4477 16 15 16C15.5523 16 16 15.5523 16 15C16 14.4477 15.5523 14 15 14Z" fill="white"/>
<path fill-rule="evenodd" clip-rule="evenodd" d="M15 4C21.0751 4 26 8.92487 26 15C26 21.0751 21.0751 26 15 26C8.92487 26 4 21.0751 4 15C4 8.92487 8.92487 4 15 4ZM15 5C9.47715 5 5 9.47715 5 15C5 20.5228 9.47715 25 15 25C20.5228 25 25 20.5228 25 15C25 9.47715 20.5228 5 15 5Z" fill="white"/>
<path d="M5.5 4C6.32843 4 7 4.67157 7 5.5C7 6.32843 6.32843 7 5.5 7C4.67157 7 4 6.32843 4 5.5C4 4.67157 4.67157 4 5.5 4Z" fill="white"/>
<path fill-rule="evenodd" clip-rule="evenodd" d="M27 0C28.6569 3.8656e-07 30 1.34315 30 3V27C30 28.6569 28.6569 30 27 30H3C1.34315 30 4.83192e-08 28.6569 0 27V3C3.8656e-07 1.34315 1.34315 4.83192e-08 3 0H27ZM3 2C2.44772 2 2 2.44772 2 3V27C2 27.5523 2.44772 28 3 28H27C27.5523 28 28 27.5523 28 27V3C28 2.44772 27.5523 2 27 2H3Z" fill="white"/>
</svg>
